# xmcd
#
# Track frame offsets:
# 150
# 12434
# 25985
# 39277
# 56547
# 68122
# 82671
# 94789
# 108398
# 125635
# 141487
# 156229
# 169861
# 186526
# 202445
#
# Disc length: 2881 seconds
#
#
# Revision: 2
# Processed by: cddbd v1.5.2PL0 Copyright (c) Steve Scherf et al.
# Submitted via: FreeRIP 2.945 
#
DISCID=d70b3f0f
DTITLE=Various Artist - Legends - A Country Album [Disc 1 of 2] (Sunday Express Newspaper - UK)
DYEAR=2006
DGENRE=Country
TTITLE0=Johnny Cash - I Walk The Line
TTITLE1=Kenny Rogers - Ruby, Don't Take Your Love To Town
TTITLE2=Charlie Rich - The Most Beautiful Girl In The World
TTITLE3=Bobby Goldsboro - Honey
TTITLE4=Patsy Cline - I've Loved And Lost Again
TTITLE5=Jeannie C Riley - Harper Valley PTA
TTITLE6=Merle Haggard - Okie From Muskogee
TTITLE7=Polly Fay - I've Had Better Men
TTITLE8=Vincent Spenser - On My Own
TTITLE9=Norton Fairfax - Lovers And Life
TTITLE10=Peggy Frisk - All Night Long
TTITLE11=Betsy Norris - Tonight
TTITLE12=Pete Nash - Sad Song
TTITLE13=Nevin Fisher - Move On
TTITLE14=Libby Fidel - All My Memories
EXTD=CDDBSort:various,legends_a_country_album_disc_1_of_2_sunday_express_newspaper_uk - YEAR: 2006
EXTT0=
EXTT1=
EXTT2=
EXTT3=
EXTT4=
EXTT5=
EXTT6=
EXTT7=
EXTT8=
EXTT9=
EXTT10=
EXTT11=
EXTT12=
EXTT13=
EXTT14=
PLAYORDER=
